<svg width="855" height="250" viewBox="0 0 855 250" fill="none" xmlns="http://www.w3.org/2000/svg">
<path d="M148.302 28.7096C154.581 22.4301 164.762 22.4301 171.042 28.7096C177.321 34.9891 177.321 45.1701 171.042 51.4496C164.762 57.7291 154.581 57.7291 148.302 51.4496C142.022 45.1701 142.022 34.9891 148.302 28.7096Z" fill="#000000"/>
<path d="M140.952 66.5834C140.952 75.4639 133.752 82.663 124.872 82.663C115.991 82.663 108.792 75.4639 108.792 66.5834C108.792 57.7029 115.991 50.5038 124.872 50.5038C133.752 50.5038 140.952 57.7029 140.952 66.5834Z" fill="#000000"/>
<path d="M154.016 125.877C154.016 141.973 140.968 155.022 124.872 155.022C108.776 155.022 95.7277 141.973 95.7277 125.877C95.7277 109.781 108.776 96.733 124.872 96.733C140.968 96.733 154.016 109.781 154.016 125.877Z" fill="#000000"/>
<path d="M168.086 125.877C168.086 134.758 175.285 141.957 184.165 141.957C193.046 141.957 200.245 134.758 200.245 125.877C200.245 116.996 193.046 109.797 184.165 109.797C175.285 109.797 168.086 116.996 168.086 125.877Z" fill="#000000"/>
<path d="M140.952 185.171C140.952 194.051 133.752 201.25 124.872 201.25C115.991 201.25 108.792 194.051 108.792 185.171C108.792 176.29 115.991 169.091 124.872 169.091C133.752 169.091 140.952 176.29 140.952 185.171Z" fill="#000000"/>
<path d="M49.4988 125.877C49.4988 134.758 56.6979 141.957 65.5784 141.957C74.4589 141.957 81.658 134.758 81.658 125.877C81.658 116.996 74.4589 109.797 65.5784 109.797C56.6979 109.797 49.4988 116.996 49.4988 125.877Z" fill="#000000"/>
<path d="M178.169 95.3204C171.889 101.6 161.708 101.6 155.429 95.3204C149.149 89.0409 149.149 78.8599 155.429 72.5804C161.708 66.3009 171.889 66.3009 178.169 72.5804C184.448 78.8599 184.448 89.0409 178.169 95.3204Z" fill="#000000"/>
<path d="M198.55 101.698C204.83 107.978 215.011 107.978 221.29 101.698C227.57 95.419 227.57 85.2379 221.29 78.9585C215.011 72.679 204.83 72.679 198.55 78.9585C192.271 85.2379 192.271 95.419 198.55 101.698Z" fill="#000000"/>
<path d="M221.29 171.042C215.011 177.321 204.83 177.321 198.55 171.042C192.271 164.762 192.271 154.581 198.55 148.302C204.83 142.022 215.011 142.022 221.29 148.302C227.57 154.581 227.57 164.762 221.29 171.042Z" fill="#000000"/>
<path d="M71.5751 179.174C77.8546 185.454 88.0356 185.454 94.3151 179.174C100.595 172.895 100.595 162.714 94.3151 156.434C88.0356 150.155 77.8546 150.155 71.5751 156.434C65.2956 162.714 65.2956 172.895 71.5751 179.174Z" fill="#000000"/>
<path d="M155.429 179.174C149.149 172.894 149.149 162.713 155.429 156.434C161.708 150.154 171.889 150.154 178.169 156.434C184.448 162.713 184.448 172.894 178.169 179.174C171.889 185.453 161.708 185.453 155.429 179.174Z" fill="#000000"/>
<path d="M71.5752 72.5802C65.2957 78.8597 65.2957 89.0407 71.5752 95.3202C77.8547 101.6 88.0357 101.6 94.3152 95.3202C100.595 89.0407 100.595 78.8597 94.3152 72.5802C88.0357 66.3007 77.8547 66.3007 71.5752 72.5802Z" fill="#000000"/>
<path d="M28.7096 102.073C22.4301 95.7936 22.4301 85.6126 28.7096 79.3331C34.9891 73.0536 45.1701 73.0536 51.4496 79.3331C57.7291 85.6126 57.7291 95.7936 51.4496 102.073C45.1701 108.353 34.9891 108.353 28.7096 102.073Z" fill="#000000"/>
<path d="M28.7096 148.676C22.4301 154.956 22.4301 165.137 28.7096 171.416C34.9891 177.696 45.1701 177.696 51.4496 171.416C57.7291 165.137 57.7291 154.956 51.4496 148.676C45.1701 142.397 34.9891 142.397 28.7096 148.676Z" fill="#000000"/>
<path d="M148.046 221.291C141.766 215.012 141.766 204.831 148.046 198.551C154.325 192.272 164.506 192.272 170.786 198.551C177.065 204.831 177.065 215.012 170.786 221.291C164.506 227.57 154.325 227.57 148.046 221.291Z" fill="#000000"/>
<path d="M76.9484 198.551C70.6689 204.831 70.6689 215.012 76.9484 221.291C83.2279 227.57 93.4089 227.57 99.6884 221.291C105.968 215.012 105.968 204.831 99.6884 198.551C93.4089 192.272 83.2279 192.272 76.9484 198.551Z" fill="#000000"/>
<path d="M99.9445 28.7096C93.665 22.4301 83.484 22.4301 77.2045 28.7096C70.925 34.9891 70.925 45.1701 77.2045 51.4496C83.484 57.7291 93.665 57.7291 99.9445 51.4496C106.224 45.1701 106.224 34.9891 99.9445 28.7096Z" fill="#000000"/>
<path d="M306.28 170V135.271L337.164 81.9263H320.013L298.711 120.256H298.345L276.983 81.9263H259.71L290.594 135.271V170H306.28Z" fill="#000000"/>
<path d="M362.676 170.977C382.452 170.977 394.842 157.915 394.842 136.614C394.842 115.496 382.33 102.373 362.676 102.373C343.145 102.373 330.572 115.557 330.572 136.614C330.572 157.915 343.023 170.977 362.676 170.977ZM362.676 158.831C352.3 158.831 346.014 150.652 346.014 136.675C346.014 122.759 352.3 114.519 362.676 114.519C373.113 114.519 379.4 122.698 379.4 136.675C379.4 150.652 373.174 158.831 362.676 158.831Z" fill="#000000"/>
<path d="M463.75 103.289H448.553V141.558C448.553 151.445 442.876 157.976 433.599 157.976C424.627 157.976 419.927 152.727 419.927 143.022V103.289H404.729V146.074C404.729 161.455 413.824 170.854 428.35 170.854C438.482 170.854 445.135 166.46 448.797 158.342H449.163V170H463.75V103.289Z" fill="#000000"/>
<path d="M528.082 106.279H528.692L546.697 170H561.529L585.149 81.9263H568.792L553.533 148.638H553.045L535.345 81.9263H521.429L503.729 148.638H503.24L487.981 81.9263H471.624L495.245 170H510.076L528.082 106.279Z" fill="#000000"/>
<path d="M611.028 159.075C603.948 159.075 599.31 155.657 599.31 150.286C599.31 144.854 603.704 141.68 612.005 141.13L627.264 140.154V145.22C627.264 153.337 620.245 159.075 611.028 159.075ZM606.573 170.732C615.423 170.732 623.663 166.399 627.325 159.258H627.691V170H642.278V124.285C642.278 111.04 631.475 102.373 614.812 102.373C599.126 102.373 587.774 111.101 587.408 123.308H601.446C602.483 117.937 607.427 114.336 614.324 114.336C622.503 114.336 627.264 118.181 627.264 125.261V130.144L609.93 131.182C593.145 132.219 584.051 138.994 584.051 150.896C584.051 162.737 593.45 170.732 606.573 170.732Z" fill="#000000"/>
<path d="M659.307 88.396V103.289H650.213V115.068H659.307V152.3C659.307 165.178 664.922 170.305 679.083 170.305C682.317 170.305 685.43 170.061 687.078 169.695V158.037C686.102 158.159 684.026 158.342 682.562 158.342C677.068 158.342 674.505 155.718 674.505 150.225V115.068H687.139V103.289H674.505V88.396H659.307Z" fill="#000000"/>
<path d="M755.071 126.909C754.034 113.176 743.108 102.373 725.652 102.373C706.365 102.373 693.853 115.74 693.853 136.614C693.853 157.915 706.426 170.977 725.774 170.977C742.437 170.977 753.851 161.394 755.132 146.807H740.789C739.385 154.375 734.014 158.586 725.896 158.586C715.887 158.586 709.295 150.469 709.295 136.614C709.295 123.186 715.826 114.763 725.835 114.763C734.38 114.763 739.629 119.89 740.728 126.909H755.071Z" fill="#000000"/>
<path d="M765.02 170H780.218V131.975C780.218 122.026 786.016 115.374 795.66 115.374C804.876 115.374 809.576 121.05 809.576 130.449V170H824.773V127.397C824.773 112.2 816.106 102.495 801.397 102.495C791.204 102.495 784.246 106.768 780.34 114.885H780.035V77.8369H765.02V170Z" fill="#000000"/>
</svg>
